
<svg id="uuid-9f716d1c-8137-4529-98ce-355965e80c27" xmlns="http://www.w3.org/2000/svg" version="1.1" width="100" height="100" fill="red" viewBox="0 0 130.5 109.5">

  <path d="M0,0h18.3v8.2h-8.4v3.4h8.2v7.7h-8.2v3.6h8.7v8.2H0V0Z"/>
  <path d="M32.2,0h7.5l11.8,31.1h-9.8l-1-2.8h-9.4l-1,2.8h-9.8L32.2,0ZM38,21.5l-2.1-5.5-2.1,5.5s4.2,0,4.2,0Z"/>
  <path d="M53.3,0h10.7c2,0,3.8.3,5.5.8,1.7.5,3.2,1.3,4.4,2.3,1.2,1,2.2,2.3,2.9,3.8s1.1,3.2,1.1,5.2-.2,2.9-.7,4c-.4,1.1-.9,2-1.4,2.7-.6.8-1.3,1.5-2.1,2l5.8,10.3h-11.7l-4.7-7.9v7.9h-9.9V0h0ZM63.2,15.3h.5c1.2,0,2.2-.3,3-.8.8-.5,1.2-1.4,1.2-2.7s-.4-2.1-1.2-2.7c-.8-.5-1.8-.8-3-.8h-.5s0,6.9,0,6.9Z"/>
  <path d="M85.4,8.2h-5.7V0h21.7v8.2h-5.7v23h-10.3V8.2h0Z"/>
  <path d="M104.3,0h9.9v10.6h5.6V0h10v31.1h-10v-11.5h-5.6v11.5h-9.9s0-31.1,0-31.1Z"/>
  <path d="M0,38.9h18.3v8.2h-8.4v3.5h8.2v7.7h-8.2v11.8H0v-31.1h0Z"/>
  <path d="M22.6,38.9h10.5v31.1h-10.5s0-31.1,0-31.1Z"/>
  <path d="M38.1,38.9h10.7c2,0,3.8.3,5.5.8,1.7.5,3.2,1.3,4.4,2.3,1.2,1,2.2,2.3,2.9,3.8s1,3.2,1,5.2-.2,2.9-.7,4c-.4,1.1-.9,2-1.5,2.7-.6.8-1.3,1.5-2.1,2l5.8,10.3h-11.7l-4.7-7.9v7.9h-9.9v-31.1h0ZM48.1,54.2h.5c1.2,0,2.2-.3,3-.8.8-.5,1.2-1.4,1.2-2.7s-.4-2.1-1.2-2.7c-.8-.5-1.8-.8-3-.8h-.5v6.9Z"/>
  <path d="M66.9,38.9h18.3v8.2h-8.4v3.5h8.2v7.7h-8.2v3.6h8.7v8.2h-18.7v-31.1h0Z"/>
  <path d="M24.2,89.6c0,2.2-.4,4-1.1,5.5s-1.8,2.7-3,3.7-2.8,1.6-4.5,2.1c-1.7.4-3.6.7-5.6.7v7.4H0v-31.1h9.9c2,0,3.9.2,5.6.7,1.7.4,3.2,1.1,4.5,2.1s2.3,2.2,3,3.7c.8,1.5,1.1,3.3,1.1,5.5h0ZM9.9,93h.4c1.3,0,2.2-.3,2.8-.9.6-.6.9-1.4.9-2.5s-.3-1.9-.9-2.5c-.6-.6-1.5-.9-2.8-.9h-.4v6.9Z"/>
  <path d="M27.6,77.7h10.5v31.1h-10.5v-31.1Z"/>
  <path d="M51,85.9h-8.6l3.2-8.2h19.9l-10.8,22.9h10.2l-3.1,8.2h-21.6l10.8-22.9h0Z"/>
  <path d="M75.7,85.9h-8.6l3.2-8.2h19.9l-10.8,22.9h10.2l-3.1,8.2h-21.6l10.8-22.9h0Z"/>
  <path d="M101.2,77.7h7.5l11.8,31.1h-9.8l-1-2.8h-9.4l-1,2.8h-9.8s11.8-31.1,11.8-31.1ZM107,99.2l-2.1-5.5-2.1,5.5h4.2Z"/>
  
</svg>